<svg width="30" height="24" viewBox="0 0 30 24" fill="none" xmlns="http://www.w3.org/2000/svg">
<path d="M28.5 10.5H5.49149L14.487 2.63097C14.7842 2.36853 14.9654 1.99912 14.991 1.60347C15.0166 1.20782 14.8845 0.818131 14.6236 0.519581C14.3627 0.221032 13.9943 0.0379112 13.5988 0.0102499C13.2033 -0.0174113 12.8129 0.112637 12.513 0.371966L0.512987 10.872C0.500987 10.8825 0.496487 10.899 0.484487 10.9095C0.378051 11.0151 0.288504 11.1366 0.218987 11.2695C0.191987 11.3145 0.151487 11.3505 0.130487 11.4C0.045184 11.589 0.00106812 11.7941 0.00106812 12.0015C0.00106812 12.2089 0.045184 12.4139 0.130487 12.603C0.151487 12.6525 0.191987 12.6885 0.218987 12.735C0.293987 12.8655 0.374987 12.99 0.484487 13.0935C0.496487 13.104 0.500987 13.1205 0.512987 13.131L12.513 23.631C12.661 23.7613 12.8333 23.8611 13.02 23.9245C13.2067 23.988 13.4042 24.0138 13.6009 24.0005C13.7977 23.9873 13.9899 23.9352 14.1664 23.8473C14.3429 23.7594 14.5003 23.6375 14.6295 23.4885C14.8912 23.1889 15.0233 22.7976 14.9966 22.4007C14.9698 22.0038 14.7865 21.6337 14.487 21.372L5.49149 13.5H28.5C28.8978 13.5 29.2793 13.3419 29.5606 13.0606C29.8419 12.7793 30 12.3978 30 12C30 11.6021 29.8419 11.2206 29.5606 10.9393C29.2793 10.658 28.8978 10.5 28.5 10.5Z" fill="white"/>
</svg>
