<svg width="30" height="24" viewBox="0 0 30 24" fill="none" xmlns="http://www.w3.org/2000/svg">
<path d="M1.49999 10.5H24.5085L15.513 2.63097C15.2158 2.36853 15.0346 1.99912 15.009 1.60347C14.9834 1.20782 15.1155 0.818131 15.3763 0.519581C15.6372 0.221032 16.0057 0.0379112 16.4012 0.0102499C16.7967 -0.0174113 17.1871 0.112637 17.487 0.371966L29.487 10.872C29.499 10.8825 29.5035 10.899 29.5155 10.9095C29.6219 11.0151 29.7115 11.1366 29.781 11.2695C29.808 11.3145 29.8485 11.3505 29.8695 11.4C29.9548 11.589 29.9989 11.7941 29.9989 12.0015C29.9989 12.2089 29.9548 12.4139 29.8695 12.603C29.8485 12.6525 29.808 12.6885 29.781 12.735C29.706 12.8655 29.625 12.99 29.5155 13.0935C29.5035 13.104 29.499 13.1205 29.487 13.131L17.487 23.631C17.339 23.7613 17.1667 23.8611 16.98 23.9245C16.7932 23.988 16.5958 24.0138 16.3991 24.0005C16.2023 23.9873 16.0101 23.9352 15.8336 23.8473C15.657 23.7594 15.4996 23.6375 15.3705 23.4885C15.1087 23.1889 14.9767 22.7976 15.0034 22.4007C15.0301 22.0038 15.2134 21.6337 15.513 21.372L24.5085 13.5H1.49999C1.10216 13.5 0.720631 13.3419 0.439325 13.0606C0.158022 12.7793 -1.33514e-05 12.3978 -1.33514e-05 12C-1.33514e-05 11.6021 0.158022 11.2206 0.439325 10.9393C0.720631 10.658 1.10216 10.5 1.49999 10.5Z" fill="white"/>
</svg>
