<svg width="19" height="11" viewBox="0 0 19 11" fill="none" xmlns="http://www.w3.org/2000/svg">
<path d="M-2.33042e-07 9.1525C0.106398 8.81402 0.348213 8.57566 0.594864 8.3373C3.28868 5.68672 5.97766 3.03614 8.66181 0.385564C8.99068 0.0613916 9.36791 -0.0911592 9.81768 0.056625C9.98695 0.113832 10.1514 0.223478 10.2771 0.347426C13.0725 3.09335 15.8631 5.84404 18.6488 8.59473C19.1179 9.05715 19.113 9.65782 18.6584 10.1202C18.4456 10.3395 18.228 10.5588 17.9959 10.759C17.5993 11.0928 17.0528 11.0737 16.6562 10.74C16.5933 10.6875 16.5401 10.6303 16.4821 10.5779C14.2139 8.34206 11.9408 6.10624 9.67259 3.86564C9.61939 3.8132 9.57587 3.75123 9.44529 3.65588C9.41143 3.72262 9.38725 3.7989 9.33889 3.84657C7.05132 6.10624 4.75892 8.36114 2.46651 10.6208C2.04092 11.0403 1.45089 11.1261 1.04948 10.7781C0.638391 10.4253 0.193452 10.0916 -1.81929e-07 9.55771C-1.99367e-07 9.41946 -2.16204e-07 9.28598 -2.33042e-07 9.1525Z" fill="#0092CB"/>
</svg>
