<svg width="29" height="21" viewBox="0 0 29 21" fill="none" xmlns="http://www.w3.org/2000/svg">
<path d="M8.61509 10.5005L-0.0957255 19.3337C-0.350633 18.8613 -0.500061 18.3265 -0.500061 17.7471V3.25388C-0.500061 2.67451 -0.350633 2.13971 -0.0957255 1.6673L8.61509 10.5005ZM29.0956 1.6673L20.3848 10.5005L29.0956 19.3337C29.3505 18.8613 29.4999 18.3265 29.4999 17.7471V3.25388C29.4999 2.68343 29.3593 2.13971 29.0956 1.6673ZM17.3962 13.531C16.6227 14.3154 15.5943 14.7433 14.5043 14.7433C13.4144 14.7433 12.386 14.3154 11.6124 13.531L9.23917 11.1244L0.440461 20.0468C1.0206 20.635 1.82927 21.0005 2.71705 21.0005H26.2916C27.1794 21.0005 27.9793 20.635 28.5682 20.0468L19.7695 11.1333L17.3962 13.531ZM26.2916 0.000488281H2.71705C1.82927 0.000488281 1.02939 0.365938 0.440461 0.954223L12.2277 12.9071C13.4847 14.1817 15.5152 14.1817 16.7721 12.9071L28.5594 0.954223C27.9793 0.357025 27.1794 0.000488281 26.2916 0.000488281Z" fill="white"/>
</svg>
