<svg width="24" height="25" viewBox="0 0 24 25" fill="none" xmlns="http://www.w3.org/2000/svg">
<path d="M10.211 14.2012C12.7124 16.6987 15.1639 17.7117 16.0471 16.8302L17.2605 15.6187C17.6615 15.2183 18.2055 14.9934 18.7727 14.9934C19.3399 14.9934 19.8838 15.2183 20.2849 15.6187L23.007 18.3365C23.408 18.7369 23.6333 19.28 23.6333 19.8463C23.6333 20.4126 23.408 20.9558 23.007 21.3562L20.8863 23.4735C18.8824 25.4743 12.9555 22.8035 7.27552 17.1324C4.43497 14.2963 2.57369 11.6258 1.37034 9.11318C0.166977 6.60051 -0.0780562 4.54277 0.924169 3.54298L3.04482 1.42565C3.44591 1.02524 3.98987 0.800293 4.55706 0.800293C5.12424 0.800293 5.6682 1.02524 6.06929 1.42565L8.79134 4.14343C9.19238 4.54388 9.41768 5.08699 9.41768 5.65329C9.41768 6.21959 9.19238 6.76269 8.79134 7.16315L7.57793 8.37465C6.69507 9.25613 7.70963 11.704 10.211 14.2012Z" fill="white"/>
</svg>
