<svg width="29" height="29" viewBox="0 0 29 29" fill="none" xmlns="http://www.w3.org/2000/svg">
<g clip-path="url(#clip0_34_1668)">
<path d="M14.5 0.500488C8.90845 0.500488 4.35944 5.0495 4.35944 10.641C4.35944 17.5802 13.4342 27.7673 13.8206 28.1976C14.1835 28.6018 14.8171 28.6011 15.1794 28.1976C15.5657 27.7673 24.6405 17.5802 24.6405 10.641C24.6404 5.0495 20.0914 0.500488 14.5 0.500488ZM14.5 15.7429C11.6867 15.7429 9.39807 13.4542 9.39807 10.641C9.39807 7.82774 11.6868 5.53907 14.5 5.53907C17.3132 5.53907 19.6018 7.82779 19.6018 10.641C19.6018 13.4543 17.3132 15.7429 14.5 15.7429Z" fill="white"/>
</g>
<defs>
<clipPath id="clip0_34_1668">
<rect width="28" height="28" fill="white" transform="translate(0.5 0.500488)"/>
</clipPath>
</defs>
</svg>
